<?xml version="1.0" encoding="UTF-8" standalone="no"?>
<!-- Created with Inkscape (http://www.inkscape.org/) -->

<svg
   xmlns:dc="http://purl.org/dc/elements/1.1/"
   xmlns:cc="http://creativecommons.org/ns#"
   xmlns:rdf="http://www.w3.org/1999/02/22-rdf-syntax-ns#"
   xmlns:svg="http://www.w3.org/2000/svg"
   xmlns="http://www.w3.org/2000/svg"
   xmlns:sodipodi="http://sodipodi.sourceforge.net/DTD/sodipodi-0.dtd"
   xmlns:inkscape="http://www.inkscape.org/namespaces/inkscape"
   version="1.0"
   width="566.92914"
   height="392.15439"
   id="svg1879"
   inkscape:version="0.48.2 r9819"
   sodipodi:docname="AJAX.svg">
  <metadata
     id="metadata8">
    <rdf:RDF>
      <cc:Work
         rdf:about="">
        <dc:format>image/svg+xml</dc:format>
        <dc:type
           rdf:resource="http://purl.org/dc/dcmitype/StillImage" />
      </cc:Work>
    </rdf:RDF>
  </metadata>
  <sodipodi:namedview
     pagecolor="#ffffff"
     bordercolor="#666666"
     borderopacity="1"
     objecttolerance="10"
     gridtolerance="10"
     guidetolerance="10"
     inkscape:pageopacity="0"
     inkscape:pageshadow="2"
     inkscape:window-width="640"
     inkscape:window-height="480"
     id="namedview6"
     showgrid="false"
     fit-margin-top="0"
     fit-margin-left="0"
     fit-margin-right="0"
     fit-margin-bottom="0"
     inkscape:zoom="0.53456211"
     inkscape:cx="283.46457"
     inkscape:cy="196.07719"
     inkscape:window-x="0"
     inkscape:window-y="0"
     inkscape:window-maximized="0"
     inkscape:current-layer="svg1879" />
  <defs
     id="defs1881" />
  <g
     id="layer1"
     transform="translate(-17.716526,-17.725951)">
    <path
       d="m 513.67926,28.136181 c -33.4375,0 -60.5307,27.10347 -60.5307,60.53067 0,33.445289 27.0932,60.556189 60.5307,60.556189 33.4346,0 60.5639,-27.1109 60.5639,-60.556189 0,-33.4272 -27.1293,-60.53067 -60.5639,-60.53067 z m 28.5162,89.262639 0,-71.020629 -71.4317,25.63405 0,17.65134 23.6512,-8.55354 0,53.387699 47.7805,-17.09892 z m -28.5162,-99.672869 c 39.2166,0 70.9664,31.76007 70.9664,70.9409 0,39.188589 -31.7498,70.958989 -70.9664,70.958989 -39.1731,0 -70.9409,-31.7704 -70.9409,-70.958989 0,-39.18083 31.7678,-70.9409 70.9409,-70.9409 l 0,0 z M 351.36424,232.27994 c 41.43614,-14.3274 71.08511,-47.3641 71.08511,-96.4311 0,-12.2882 -6.22382,-42.127109 -28.81417,-61.373289 -14.88756,-12.6861 -36.41705,-27.69909 -105.91689,-29.37649 -14.3713,-0.35185 -58.06488,1.20472 -58.06488,1.20472 l 0,2.51185 c 12.33922,9.42413 25.60571,25.04339 31.98614,43.04905 6.63981,-0.21826 16.6904,-0.75259 26.62052,-0.21826 27.90992,1.48712 40.06169,6.70641 52.63759,16.592949 12.64996,9.93012 19.45418,26.98507 19.37197,42.46087 -0.0797,21.1135 -10.10232,42.9332 -40.58327,55.355 -24.66566,10.0583 -54.49429,12.2697 -54.49429,12.2697 l -0.0206,7.6929 c 0,0 17.86146,8.5532 35.71051,32.1583 15.37796,20.3149 104.6328,151.7042 104.6328,151.7042 l 73.74043,0 c 0,0 -119.16563,-166.0032 -127.89102,-177.6004 l 0,0 z m -235.86519,126.9021 -41.292294,0 0,-267.841409 c 0.57792,0 18.52973,-0.22854 29.710634,-0.22854 46.10303,0 71.66516,23.841489 72.38197,56.562149 0.44433,19.8627 -5.44535,38.919 -25.70634,52.9356 -16.53874,11.4633 -39.58122,14.8794 -39.58122,14.8794 l 0,8.6255 c 0,0 31.94256,4.7569 48.16028,12.3417 30.20385,14.0988 39.17303,36.0088 39.38137,64.3347 0.33626,44.7906 -42.90519,58.3909 -83.0544,58.3909 l 0,0 z M 17.716526,46.190751 l 0,363.688589 80.70165,0 c 105.945234,0 161.952524,-39.037 161.952524,-112.9139 0,-43.9813 -27.61973,-73.0778 -71.09504,-83.1724 28.3259,-16.7623 46.51901,-41.4025 46.51901,-78.1175 0,-39.263019 -23.30433,-91.157939 -120.90436,-91.157939 -41.089264,0 -86.121144,1.32768 -97.173784,1.67209 l 0,0.0011 z"
       style="fill:#0086cb;fill-rule:evenodd"
       id="path10"
       inkscape:connector-curvature="0" />
  </g>
</svg>
